<svg width="95" height="117" viewBox="0 0 95 117" fill="none" xmlns="http://www.w3.org/2000/svg">
<path d="M64.3672 19.0391C67.9414 14.7031 70.4609 8.78516 70.4609 2.80859C70.4609 1.98828 70.4023 1.16797 70.2852 0.523438C64.4258 0.757812 57.3945 4.39062 53.2344 9.3125C49.8945 13.0625 46.8477 19.0391 46.8477 25.0156C46.8477 25.9531 47.0234 26.832 47.082 27.125C47.4336 27.1836 48.0195 27.3008 48.6641 27.3008C53.8789 27.3008 60.4414 23.7852 64.3672 19.0391ZM68.4688 28.5312C59.7383 28.5312 52.5898 33.8633 48.0195 33.8633C43.1562 33.8633 36.8281 28.8828 29.2109 28.8828C14.7383 28.8828 0.0898438 40.8359 0.0898438 63.3359C0.0898438 77.3984 5.48047 92.2227 12.2188 101.773C17.9609 109.859 23 116.48 30.2656 116.48C37.4141 116.48 40.5781 111.734 49.4844 111.734C58.5078 111.734 60.5586 116.363 68.4688 116.363C76.3203 116.363 81.5352 109.156 86.5156 102.066C92.0234 93.9219 94.3672 86.0117 94.4258 85.6016C93.957 85.4844 78.957 79.332 78.957 62.1641C78.957 47.2812 90.7344 40.6016 91.4375 40.0742C83.6445 28.8828 71.75 28.5312 68.4688 28.5312Z" fill="black"/>
</svg>
