<svg width="111" height="112" viewBox="0 0 111 112" fill="none" xmlns="http://www.w3.org/2000/svg">
<path d="M44.832 88.8008C54.8516 88.8008 64.0508 85.4609 71.4922 79.8359L101.316 109.719C102.312 110.715 103.719 111.301 105.184 111.301C108.465 111.301 110.633 108.781 110.633 105.793C110.633 104.328 110.164 102.98 109.109 101.926L79.4023 72.1602C85.5547 64.543 89.1875 54.9336 89.1875 44.4453C89.1875 20.0703 69.2656 0.0898438 44.832 0.0898438C20.457 0.0898438 0.476562 20.0117 0.476562 44.4453C0.476562 68.8789 20.3984 88.8008 44.832 88.8008ZM44.832 81.418C24.5586 81.418 7.91797 64.7188 7.91797 44.4453C7.91797 24.2305 24.5586 7.53125 44.832 7.53125C65.1055 7.53125 81.7461 24.2305 81.7461 44.4453C81.7461 64.7188 65.1055 81.418 44.832 81.418Z" fill="black"/>
</svg>
