<svg width="103" height="118" viewBox="0 0 103 118" fill="none" xmlns="http://www.w3.org/2000/svg">
<path d="M18.2266 117.84H86.8398C97.0938 117.84 102.953 111.98 102.953 100.73V39.3828C102.953 28.0742 97.0938 22.2734 85.668 22.2734H75.1211C74.8867 10.7305 65.2188 0.476562 51.918 0.476562C38.6758 0.476562 28.9492 10.7305 28.7148 22.2734H18.2266C6.80078 22.2734 0.941406 28.0156 0.941406 39.3828V100.73C0.941406 112.039 6.80078 117.84 18.2266 117.84ZM51.918 7.39062C61.3516 7.39062 67.6797 14.4219 67.9141 22.2734H35.9805C36.2148 14.4219 42.543 7.39062 51.918 7.39062ZM18.3438 110.574C11.7812 110.574 8.20703 107.117 8.20703 100.32V39.7344C8.20703 32.9961 11.7812 29.4805 18.3438 29.4805H85.4922C91.9961 29.4805 95.6875 32.9961 95.6875 39.7344V100.32C95.6875 107.117 91.9961 110.574 86.6641 110.574H18.3438Z" fill="black"/>
</svg>
